<svg width="243" height="35" viewBox="0 0 243 35" fill="none" xmlns="http://www.w3.org/2000/svg">
<path d="M27.3992 31.3C26.5659 31.7 25.6992 32.1 24.7992 32.5C23.9326 32.8667 22.9992 33.2 21.9992 33.5C20.9992 33.7667 19.8992 33.9833 18.6992 34.15C17.5326 34.3167 16.2492 34.4 14.8492 34.4C10.3826 34.4 6.93255 33.4 4.49922 31.4C2.09922 29.4 0.899219 26.0667 0.899219 21.4C0.899219 18.7 1.31589 16.1667 2.14922 13.8C2.98255 11.4 4.21589 9.31667 5.84922 7.55C7.48255 5.75 9.49922 4.33333 11.8992 3.3C14.2992 2.26666 17.0492 1.75 20.1492 1.75C21.6159 1.75 22.9492 1.85 24.1492 2.05C25.3826 2.25 26.4826 2.51667 27.4492 2.85C28.4492 3.15 29.3326 3.48333 30.0992 3.85C30.8992 4.21667 31.6159 4.56667 32.2492 4.9L30.4492 14.2H21.4492C21.4826 13.8667 21.5159 13.4333 21.5492 12.9C21.6159 12.3667 21.6659 11.8333 21.6992 11.3C21.7326 10.7333 21.7659 10.1833 21.7992 9.65C21.8326 9.11667 21.8492 8.66667 21.8492 8.3C21.8492 8.03333 21.8326 7.73333 21.7992 7.4C21.7659 7.03333 21.6826 6.68333 21.5492 6.35C21.4159 6.01667 21.1992 5.75 20.8992 5.55C20.6326 5.31667 20.2659 5.2 19.7992 5.2C18.9326 5.2 18.1326 5.56667 17.3992 6.3C16.6992 7 16.0659 7.95 15.4992 9.15C14.9326 10.3167 14.4326 11.65 13.9992 13.15C13.5659 14.65 13.1992 16.1833 12.8992 17.75C12.6326 19.2833 12.4159 20.8 12.2492 22.3C12.1159 23.8 12.0492 25.1167 12.0492 26.25C12.0492 26.5833 12.0659 27 12.0992 27.5C12.1326 28 12.2326 28.4833 12.3992 28.95C12.5659 29.4167 12.8159 29.8167 13.1492 30.15C13.5159 30.4833 13.9992 30.65 14.5992 30.65C15.6326 30.65 16.6326 30.0167 17.5992 28.75C18.5659 27.45 19.4159 25.15 20.1492 21.85H29.3992L27.3992 31.3ZM34.7328 14.35C36.4328 13.5167 38.1661 12.9167 39.9328 12.55C41.7328 12.15 43.7328 11.95 45.9328 11.95C48.0661 11.95 49.8328 12.1167 51.2328 12.45C52.6328 12.7833 53.7495 13.2667 54.5828 13.9C55.4161 14.5333 55.9995 15.2833 56.3328 16.15C56.6661 17.0167 56.8328 18 56.8328 19.1C56.8328 19.7333 56.7828 20.4167 56.6828 21.15C56.6161 21.8833 56.5328 22.5 56.4328 23L54.0828 34H46.0328L45.1328 30.8H44.8328C43.7661 31.9667 42.5161 32.8667 41.0828 33.5C39.6828 34.1 38.2828 34.4 36.8828 34.4C36.0828 34.4 35.2995 34.2833 34.5328 34.05C33.7661 33.8167 33.0828 33.4667 32.4828 33C31.8828 32.5 31.3995 31.8833 31.0328 31.15C30.6661 30.3833 30.4828 29.4667 30.4828 28.4C30.4828 26.6667 30.9495 25.3 31.8828 24.3C32.8495 23.2667 34.0995 22.5 35.6328 22C37.1995 21.4667 38.9495 21.1333 40.8828 21C42.8495 20.8667 44.8161 20.8 46.7828 20.8C46.8495 20.4667 46.9328 20 47.0328 19.4C47.1328 18.7667 47.1828 18.2167 47.1828 17.75C47.1828 17.15 47.0161 16.6 46.6828 16.1C46.3828 15.5667 45.7328 15.3 44.7328 15.3C43.5661 15.3 42.6995 15.65 42.1328 16.35C41.5995 17.0167 41.2495 17.8333 41.0828 18.8H33.7828L34.7328 14.35ZM46.2328 23.15H45.3328C44.3661 23.15 43.5328 23.2833 42.8328 23.55C42.1661 23.7833 41.6161 24.1 41.1828 24.5C40.7828 24.9 40.4828 25.35 40.2828 25.85C40.0828 26.35 39.9828 26.85 39.9828 27.35C39.9828 28.15 40.1828 28.75 40.5828 29.15C41.0161 29.55 41.5161 29.75 42.0828 29.75C42.7828 29.75 43.4661 29.5 44.1328 29C44.8328 28.5 45.2661 27.8333 45.4328 27L46.2328 23.15ZM62.7707 12.5H70.9207L71.6707 16.25H72.0207C72.7874 15.05 73.7707 14.0333 74.9707 13.2C76.1707 12.3667 77.754 11.95 79.7207 11.95C79.854 11.95 80.054 11.9667 80.3207 12C80.6207 12 80.9374 12.05 81.2707 12.15C81.6374 12.2167 82.004 12.3333 82.3707 12.5C82.7707 12.6333 83.154 12.8333 83.5207 13.1L81.3207 23.4H75.8707C75.804 21.3333 75.6207 19.9 75.3207 19.1C75.0207 18.2667 74.5374 17.85 73.8707 17.85C73.5374 17.85 73.1707 17.9333 72.7707 18.1C72.404 18.2333 72.0207 18.55 71.6207 19.05L68.4207 34H58.2207L62.7707 12.5ZM122.976 9.8C122.976 11.7667 122.426 13.5833 121.326 15.25C120.226 16.9167 118.41 18.1833 115.876 19.05L121.676 34H110.526L106.126 20.15H105.576L102.626 34H91.8262L98.5762 2.25H111.726C113.26 2.25 114.71 2.35 116.076 2.55C117.443 2.71667 118.626 3.08333 119.626 3.65C120.66 4.18333 121.476 4.95 122.076 5.95C122.676 6.91667 122.976 8.2 122.976 9.8ZM108.576 16.95C109.443 16.95 110.176 16.6667 110.776 16.1C111.41 15.5 111.91 14.7833 112.276 13.95C112.676 13.1167 112.96 12.2333 113.126 11.3C113.293 10.3333 113.376 9.5 113.376 8.8C113.376 7.93333 113.226 7.2 112.926 6.6C112.626 5.96666 111.976 5.65 110.976 5.65H108.726L106.226 16.95H108.576ZM133.488 23.95C133.355 24.6833 133.255 25.3833 133.188 26.05C133.155 26.7167 133.138 27.3167 133.138 27.85C133.138 28.15 133.155 28.4833 133.188 28.85C133.221 29.2167 133.288 29.5667 133.388 29.9C133.521 30.2 133.688 30.4667 133.888 30.7C134.121 30.9 134.438 31 134.838 31C135.138 31 135.471 30.9 135.838 30.7C136.238 30.5 136.621 30.2167 136.988 29.85C137.388 29.4833 137.755 29.0333 138.088 28.5C138.455 27.9667 138.738 27.3667 138.938 26.7H147.138L145.838 32.05C145.171 32.4833 144.405 32.85 143.538 33.15C142.671 33.45 141.755 33.7 140.788 33.9C139.821 34.0667 138.838 34.1833 137.838 34.25C136.838 34.35 135.888 34.4 134.988 34.4C133.321 34.4 131.771 34.25 130.338 33.95C128.905 33.65 127.655 33.1333 126.588 32.4C125.521 31.6667 124.671 30.7 124.038 29.5C123.438 28.2667 123.138 26.75 123.138 24.95C123.138 23.3167 123.388 21.7167 123.888 20.15C124.421 18.5833 125.288 17.2 126.488 16C127.721 14.7667 129.355 13.7833 131.388 13.05C133.455 12.3167 136.021 11.95 139.088 11.95C142.421 11.95 144.921 12.4667 146.588 13.5C148.288 14.5333 149.138 16.15 149.138 18.35C149.138 19.25 149.005 20.2333 148.738 21.3C148.471 22.3333 148.071 23.2167 147.538 23.95H133.488ZM140.138 18C140.138 16.9667 139.971 16.2667 139.638 15.9C139.305 15.5333 138.905 15.35 138.438 15.35C137.905 15.35 137.405 15.5333 136.938 15.9C136.505 16.2333 136.105 16.7 135.738 17.3C135.371 17.8667 135.038 18.5333 134.738 19.3C134.438 20.0333 134.188 20.8167 133.988 21.65H139.688C139.755 21.25 139.821 20.8333 139.888 20.4C139.955 20.0333 140.005 19.6333 140.038 19.2C140.105 18.7667 140.138 18.3667 140.138 18ZM163.332 15.7C164.032 15.0333 164.815 14.4167 165.682 13.85C166.448 13.3833 167.348 12.95 168.382 12.55C169.415 12.15 170.565 11.95 171.832 11.95C173.565 11.95 174.998 12.4 176.132 13.3C177.265 14.1667 177.832 15.3667 177.832 16.9C177.832 17.3333 177.782 17.8667 177.682 18.5C177.582 19.1 177.465 19.7333 177.332 20.4C177.198 21.0667 177.048 21.75 176.882 22.45C176.748 23.1167 176.632 23.7167 176.532 24.25L174.432 34H164.282L167.032 20.95C167.098 20.5167 167.182 20.0833 167.282 19.65C167.382 19.1833 167.432 18.7667 167.432 18.4C167.432 17.9 167.298 17.5 167.032 17.2C166.798 16.8667 166.432 16.7 165.932 16.7C165.332 16.7 164.748 16.9167 164.182 17.35C163.648 17.7833 163.232 18.15 162.932 18.45L159.632 34H149.432L153.982 12.5H162.132L163.032 15.7H163.332ZM181.284 12.5C182.518 12.2333 183.601 11.9333 184.534 11.6C185.468 11.2667 186.318 10.85 187.084 10.35C187.884 9.85 188.634 9.23333 189.334 8.5C190.068 7.76667 190.851 6.86667 191.684 5.8H196.834L195.384 12.5H199.284L198.634 15.85H194.684L192.634 25.6C192.468 26.3667 192.334 27.05 192.234 27.65C192.134 28.25 192.084 28.7167 192.084 29.05C192.084 29.7167 192.318 30.1333 192.784 30.3C193.284 30.4667 194.201 30.55 195.534 30.55L194.784 34C194.551 34.0667 194.184 34.1167 193.684 34.15C193.218 34.1833 192.684 34.2167 192.084 34.25C191.518 34.3167 190.918 34.35 190.284 34.35C189.684 34.3833 189.151 34.4 188.684 34.4C187.851 34.4 187.034 34.3333 186.234 34.2C185.434 34.1 184.718 33.8833 184.084 33.55C183.451 33.1833 182.934 32.6667 182.534 32C182.168 31.3333 181.984 30.4333 181.984 29.3C181.984 28.9 182.001 28.4 182.034 27.8C182.101 27.2 182.218 26.5333 182.384 25.8L184.484 15.85H180.584L181.284 12.5ZM202.164 14.35C203.864 13.5167 205.598 12.9167 207.364 12.55C209.164 12.15 211.164 11.95 213.364 11.95C215.498 11.95 217.264 12.1167 218.664 12.45C220.064 12.7833 221.181 13.2667 222.014 13.9C222.848 14.5333 223.431 15.2833 223.764 16.15C224.098 17.0167 224.264 18 224.264 19.1C224.264 19.7333 224.214 20.4167 224.114 21.15C224.048 21.8833 223.964 22.5 223.864 23L221.514 34H213.464L212.564 30.8H212.264C211.198 31.9667 209.948 32.8667 208.514 33.5C207.114 34.1 205.714 34.4 204.314 34.4C203.514 34.4 202.731 34.2833 201.964 34.05C201.198 33.8167 200.514 33.4667 199.914 33C199.314 32.5 198.831 31.8833 198.464 31.15C198.098 30.3833 197.914 29.4667 197.914 28.4C197.914 26.6667 198.381 25.3 199.314 24.3C200.281 23.2667 201.531 22.5 203.064 22C204.631 21.4667 206.381 21.1333 208.314 21C210.281 20.8667 212.248 20.8 214.214 20.8C214.281 20.4667 214.364 20 214.464 19.4C214.564 18.7667 214.614 18.2167 214.614 17.75C214.614 17.15 214.448 16.6 214.114 16.1C213.814 15.5667 213.164 15.3 212.164 15.3C210.998 15.3 210.131 15.65 209.564 16.35C209.031 17.0167 208.681 17.8333 208.514 18.8H201.214L202.164 14.35ZM213.664 23.15H212.764C211.798 23.15 210.964 23.2833 210.264 23.55C209.598 23.7833 209.048 24.1 208.614 24.5C208.214 24.9 207.914 25.35 207.714 25.85C207.514 26.35 207.414 26.85 207.414 27.35C207.414 28.15 207.614 28.75 208.014 29.15C208.448 29.55 208.948 29.75 209.514 29.75C210.214 29.75 210.898 29.5 211.564 29C212.264 28.5 212.698 27.8333 212.864 27L213.664 23.15ZM235.852 34H225.652L232.752 0.399997H243.002L235.852 34Z" fill="#F28135"/>
</svg>
